# AST/ASF file generated using VICON BodyLanguage
# -----------------------------------------------
:version 1.10
:name VICON
:units
  mass 1.0
  length 0.45
  angle deg
:documentation
   .ast/.asf automatically generated from VICON data using
   VICON BodyBuilder and BodyLanguage model FoxedUp or BRILLIANT.MOD
:root
   order TX TY TZ RX RY RZ
   axis XYZ
   position 0 0 0  
   orientation 0 0 0 
:bonedata
  begin
     id 1 
     name lhipjoint
     direction 0.610259 -0.730986 0.305356 
     length 2.50941 
     axis 0 0 0  XYZ
  end
  begin
     id 2 
     name lfemur
     direction 0.34202 -0.939693 0  
     length 7.48822  
     axis 0 0 20  XYZ
    dof rx ry rz
    limits (-160.0 20.0)
           (-70.0 70.0)
           (-60.0 70.0)
  end
  begin
     id 3 
     name ltibia
     direction 0.34202 -0.939693 0   
     length 7.60141   
     axis 0 0 20   XYZ
    dof rx
    limits (-10.0 170.0)
  end
  begin
     id 4 
     name lfoot
     direction 0.0673488 -0.185039 0.980421   
     length 2.04049   
     axis -90 7.62852e-016 20   XYZ
    dof rx rz
    limits (-45.0 90.0)
           (-70.0 20.0)
  end
  begin
     id 5 
     name ltoes
     direction 1.5356e-011 -4.21729e-011 1   
     length 1.02897   
     axis -90 7.62852e-016 20   XYZ
    dof rx
    limits (-90.0 20.0)
  end
  begin
     id 6 
     name rhipjoint
     direction -0.57612 -0.754205 0.315056   
     length 2.43216  
     axis 0 0 0  XYZ 
  end
  begin
     id 7 
     name rfemur
     direction -0.34202 -0.939693 0   
     length 7.42799   
     axis 0 0 -20   XYZ
    dof rx ry rz
    limits (-160.0 20.0)
           (-70.0 70.0)
           (-70.0 60.0)
  end
  begin
     id 8 
     name rtibia
     direction -0.34202 -0.939693 0   
     length 7.69484   
     axis 0 0 -20   XYZ
    dof rx
    limits (-10.0 170.0)
 end
 begin
     id 9 
     name rfoot
     direction -0.111837 -0.30727 0.945028   
     length 2.15769  
     axis -90 -7.62852e-016 -20   XYZ
    dof rx rz
    limits (-45.0 90.0)
           (-20.0 70.0)
  end
  begin
     id 10 
     name rtoes
     direction -1.53539e-011 -4.21878e-011 1   
     length 1.07391   
     axis -90 -7.62852e-016 -20   XYZ
    dof rx
    limits (-90.0 20.0)
  end
  begin
     id 11 
     name lowerback
     direction 0.00552624 0.990109 -0.140195   
     length 2.12403   
     axis 0 0 0   XYZ
    dof rx ry rz
    limits (-20.0 45.0)
           (-30.0 30.0)
           (-30.0 30.0)
  end
  begin
     id 12 
     name upperback
     direction 0.00361898 0.999976 -0.00584723   
     length 2.13232   
     axis 0 0 0   XYZ
    dof rx ry rz
    limits (-20.0 45.0)
           (-30.0 30.0)
           (-30.0 30.0)
  end
  begin
     id 13 
     name thorax
     direction -0.000331275 0.998253 0.0590847   
     length 2.17688   
     axis 0 0 0   XYZ
    dof rx ry rz
    limits (-20.0 45.0)
           (-30.0 30.0)
           (-30.0 30.0)
  end
  begin
     id 14 
     name lowerneck
     direction -0.0561561 0.979832 0.19177   
     length 1.64159   
     axis 0 0 0   XYZ
    dof rx ry rz
    limits (-20.0 45.0)
           (-30.0 30.0)
           (-30.0 30.0)
  end
  begin
     id 15 
     name upperneck
     direction 0.0827153 0.979385 -0.184293   
     length 1.68939   
     axis 0 0 0   XYZ
    dof rx ry rz
    limits (-20.0 45.0)
           (-30.0 30.0)
           (-30.0 30.0)
  end
  begin
     id 16
     name head
     direction 0.0278583 0.995936 -0.0856488  
     length 1.70207  
     axis 0 0 0   XYZ
    dof rx ry rz
    limits (-20.0 45.0)
           (-30.0 30.0)
           (-30.0 30.0)
  end
  begin
     id 17 
     name lclavicle
     direction 0.950993 0.301131 -0.0702275  
     length 3.41652  
     axis 0 0 0   XYZ
    dof ry rz
    limits (-20.0 10.0)
           (0.0 20.0)
  end
  begin
     id 18 
     name lhumerus
     direction 1 -4.48981e-011 -3.9662e-029   
     length 5.32955   
     axis 180 -30 -90   XYZ
    dof rx ry rz
    limits (-60.0 90.0)
           (-90.0 90.0)
           (-90.0 90.0)
  end
  begin
     id 19
     name lradius
     direction 1 -4.48925e-011 -9.0549e-027   
     length 3.69232   
     axis 180 -30 -90   XYZ
    dof rx
    limits (-10.0 170.0)
  end
  begin
     id 20
     name lwrist
     direction 1 -4.49007e-011 -1.49005e-026   
     length 1.84616   
     axis 9.0955e-015 90 90   XYZ
    dof ry
    limits (-180.0 0.0)
 end
  begin
     id 21 
     name lhand
     direction 1 -4.49016e-011 -2.98023e-026   
     length 0.536598   
     axis 1.90115e-014 90 90   XYZ
    dof rx rz
    limits (-90.0 90.0)
           (-45.0 45.0)
  end
  begin
     id 22 
     name lfingers
     direction 1 -4.48924e-011 -5.9578e-026   
     length 0.432619   
     axis 3.80223e-014 90 90   XYZ
    dof rx
    limits (0.0 90.0)
  end
  begin
     id 23
     name lthumb
     direction 0.707107 -6.34947e-011 0.707107   
     length 0.621157   
     axis -90 45 -3.84942e-014   XYZ
    dof rx rz
    limits (-45.0 45.0)
           (-45.0 45.0)
  end
  begin
     id 24 
     name rclavicle
     direction -0.955495 0.276497 -0.102848   
     length 3.36357  
     axis 0 0 0   XYZ 
    dof ry rz
    limits (-10.0 20.0)
           (-20.0 0.0)
  end
  begin
     id 25 
     name rhumerus
     direction -1 -4.48961e-011 3.30983e-027  
     length 5.23431   
     axis 180 30 90   XYZ
    dof rx ry rz
    limits (-90.0 60.0)
           (-90.0 90.0)
           (-90.0 90.0)
  end
  begin
     id 26 
     name rradius
     direction -1 -4.48965e-011 -6.63263e-027   
     length 3.55301   
     axis 180 30 90   XYZ
    dof rx
    limits (-10.0 170.0)
  end
  begin
     id 27 
     name rwrist
     direction -1 -4.48942e-011 -1.48958e-026   
     length 1.77651   
     axis 9.0955e-015 -90 -90   XYZ
    dof ry
    limits (-180.0 0.0)
  end
  begin
     id 28
     name rhand
     direction -1 -4.48977e-011 -2.97966e-026   
     length 0.772522   
     axis 1.90115e-014 -90 -90   XYZ
    dof rx rz
    limits (-90.0 90.0)
           (-45.0 45.0)
  end
  begin
     id 29
     name rfingers
     direction -1 -4.49135e-011 -5.96389e-026   
     length 0.622827   
     axis 3.80223e-014 -90 -90   XYZ
    dof rx
    limits (0.0 90.0)
  end
  begin
     id 30
     name rthumb
     direction -0.707107 -6.34969e-011 0.707107   
     length 0.894259   
     axis -90 -45 3.84942e-014   XYZ
    dof rx rz
    limits (-45.0 45.0)
           (-45.0 45.0)
  end
:hierarchy
  begin
    root lhipjoint rhipjoint lowerback
    lhipjoint lfemur
    lfemur ltibia
    ltibia lfoot
    lfoot ltoes
    rhipjoint rfemur
    rfemur rtibia
    rtibia rfoot
    rfoot rtoes
    lowerback upperback
    upperback thorax
    thorax lowerneck lclavicle rclavicle
    lowerneck upperneck
    upperneck head
    lclavicle lhumerus
    lhumerus lradius
    lradius lwrist
    lwrist lhand lthumb
    lhand lfingers
    rclavicle rhumerus
    rhumerus rradius
    rradius rwrist
    rwrist rhand rthumb
    rhand rfingers
  end

#!OML:ASF F:\VICON\USERDATA\INSTALL\rory3\rory3.ASF
:FULLY-SPECIFIED
:DEGREES
446
root -13.0007 17.8774 9.59856 357.982 20.5399 -356.052
lowerback 10.3571 1.14917 -4.62091
upperback 0.697899 0.949902 -0.897426
thorax -5.14456 0.566806 1.52396
lowerneck -19.9858 -2.30262 -10.3586
upperneck 38.7687 -0.608794 3.9885
head 17.853 -1.12883 3.59853
rclavicle 2.7496e-014 -4.96962e-015
rhumerus -32.3088 -9.97161 -81.3014
rradius 33.4145
rwrist 4.87237
rhand -15.5513 8.31099
rfingers 7.12502
rthumb 10.633 -21.4
lclavicle 2.7496e-014 -4.96962e-015
lhumerus -33.8726 1.22164 84.1859
lradius 41.8669
lwrist -0.9429
lhand -18.5517 24.9565
lfingers 7.12502
lthumb 7.73784 54.7949
rfemur -15.3321 -6.33591 14
rtibia 59.7947
rfoot -9.66606 -4.2515
rtoes -1.61803
lfemur -2.82146 1.66706 -29.1582
ltibia 10.1498
lfoot 0.803355 -18.4699
ltoes 12.7396
447
root -13.0055 17.8625 9.68145 358.099 21.562 -356.084
lowerback 10.4174 1.09262 -4.64425
upperback 0.614706 0.868958 -0.836128
thorax -5.26221 0.531609 1.61155
lowerneck -19.7317 -2.34501 -10.6181
upperneck 38.5732 -0.702165 4.24342
head 17.6902 -1.15717 3.73479
rclavicle 3.29633e-014 9.51682e-015
rhumerus -32.4639 -9.91963 -81.2717
rradius 33.2693
rwrist 4.59289
rhand -15.3354 8.03353
rfingers 7.12502
rthumb 10.8412 -21.6667
lclavicle 3.29633e-014 9.51682e-015
lhumerus -33.886 0.999445 84.3432
lradius 42.703
lwrist -0.973914
lhand -17.6855 25.5691
lfingers 7.12502
lthumb 8.57386 55.375
rfemur -15.8438 -5.86571 14.0108
rtibia 59.0396
rfoot -10.0427 -4.48889
rtoes -1.41885
lfemur -3.21408 1.27803 -29.0528
ltibia 11.2636
lfoot 0.123051 -19.0072
ltoes 12.8858
448
root -13.0061 17.8524 9.75963 358.218 22.6168 -356.115
lowerback 10.4698 1.01496 -4.60034
upperback 0.559564 0.768183 -0.799449
thorax -5.34317 0.4838 1.63926
lowerneck -19.6498 -2.36018 -10.7091
upperneck 38.5148 -0.734085 4.35032
head 17.6411 -1.1621 3.79218
rclavicle -1.21189e-014 -4.62174e-015
rhumerus -32.5674 -9.82297 -81.3148
rradius 33.1288
rwrist 4.32005
rhand -15.4787 7.99299
rfingers 7.12502
rthumb 10.703 -21.7144
lclavicle -1.21189e-014 -4.62174e-015
lhumerus -33.8271 0.638517 84.5623
lradius 43.6746
lwrist -0.811564
lhand -17.355 25.0459
lfingers 7.12502
lthumb 8.89278 54.8385
rfemur -16.3273 -5.33768 13.9601
rtibia 58.2482
rfoot -10.5688 -4.72166
rtoes -1.37088
lfemur -3.69733 0.830495 -28.9701
ltibia 12.5499
lfoot -0.614874 -19.5493
ltoes 12.9294
449
root -13.0109 17.838 9.83984 358.35 23.7395 -355.94
lowerback 10.4746 0.950679 -4.82075
upperback 0.616319 0.658652 -0.808444
thorax -5.28175 0.433348 1.77068
lowerneck -19.6804 -2.36669 -10.6222
upperneck 38.4783 -0.759821 4.33701
head 17.6298 -1.15619 3.76527
rclavicle 2.95642e-014 -1.15419e-014
rhumerus -32.5978 -9.67716 -81.4398
rradius 33.0454
rwrist 4.09982
rhand -15.7865 8.04171
rfingers 7.12502
rthumb 10.4061 -21.6808
lclavicle 2.95642e-014 -1.15419e-014
lhumerus -33.6165 0.116525 84.818
lradius 44.7337
lwrist -0.604066
lhand -17.6548 25.2012
lfingers 7.12502
lthumb 8.6035 55.0059
rfemur -16.6952 -4.85552 13.6588
rtibia 57.4135
rfoot -11.204 -4.8618
rtoes -2.52596
lfemur -3.98902 0.43794 -29.0763
ltibia 13.5804
lfoot -1.19996 -20.2616
ltoes 13.3066
450
root -13.0162 17.8063 9.92166 358.547 24.8571 -355.687
lowerback 10.4711 0.920201 -5.07777
upperback 0.632019 0.58697 -0.852457
thorax -5.26089 0.403285 1.8799
lowerneck -19.5398 -2.41418 -10.7471
upperneck 38.2956 -0.896713 4.5825
head 17.5085 -1.18413 3.86574
rclavicle 7.94238e-014 4.09993e-016
rhumerus -32.7267 -9.62925 -81.5346
rradius 32.9959
rwrist 3.94951
rhand -15.8877 7.84354
rfingers 7.12502
rthumb 10.3085 -21.8838
lclavicle 7.94238e-014 4.09993e-016
lhumerus -33.5437 -0.506836 85.0476
lradius 45.806
lwrist -0.295256
lhand -18.5072 26.5338
lfingers 7.12502
lthumb 7.78086 56.3706
rfemur -17.0547 -4.43408 13.2384
rtibia 56.5556
rfoot -11.8743 -5.01649
rtoes -4.84476
lfemur -4.18818 0.0609294 -29.2414
ltibia 14.352
lfoot -1.4751 -20.9967
ltoes 14.2
451
root -13.0184 17.8 10.007 358.632 25.9772 -355.601
lowerback 10.5466 0.897744 -5.16401
upperback 0.613716 0.542845 -0.833667
thorax -5.32048 0.385637 1.95389
lowerneck -19.4128 -2.41894 -10.8043
upperneck 38.2243 -0.921302 4.66979
head 17.4401 -1.18258 3.90825
rclavicle -5.08258e-014 4.22728e-015
rhumerus -32.9067 -9.73035 -81.4725
rradius 32.8762
rwrist 4.00307
rhand -16.0188 7.94467
rfingers 7.12502
rthumb 10.182 -21.7889
lclavicle -5.08258e-014 4.22728e-015
lhumerus -33.4905 -0.880568 85.2791
lradius 46.7451
lwrist -0.153792
lhand -20.0216 27.3992
lfingers 7.12502
lthumb 6.31897 57.285
rfemur -17.2171 -3.88968 12.9609
rtibia 55.5268
rfoot -12.5264 -5.19653
rtoes -6.28153
lfemur -4.19214 -0.244322 -29.2199
ltibia 14.8954
lfoot -1.52894 -21.8233
ltoes 15.4815
452
root -13.0243 17.7986 10.09 358.692 27.117 -355.549
lowerback 10.608 0.843579 -5.33729
upperback 0.684304 0.456776 -0.699
thorax -5.27676 0.346972 2.20566
lowerneck -19.6528 -2.3454 -10.7069
upperneck 38.3787 -0.697631 4.43219
head 17.5614 -1.11232 3.8364
rclavicle 2.50733e-014 4.79568e-015
rhumerus -32.7884 -9.66671 -81.2883
rradius 32.5818
rwrist 4.14876
rhand -16.297 8.66496
rfingers 7.12502
rthumb 9.91361 -21.0816
lclavicle 2.50733e-014 4.79568e-015
lhumerus -33.2562 -0.872881 85.5861
lradius 47.5833
lwrist -0.351076
lhand -20.5741 27.194
lfingers 7.12502
lthumb 5.7856 57.095
rfemur -17.3499 -3.16665 12.7069
rtibia 54.4142
rfoot -12.7616 -5.07659
rtoes -5.28665
lfemur -4.14317 -0.61824 -29.1481
ltibia 15.3187
lfoot -1.47212 -22.6139
ltoes 16.4142
453
root -13.031 17.8018 10.1707 358.783 28.2519 -355.498
lowerback 10.6485 0.773734 -5.45009
upperback 0.770844 0.35698 -0.604567
thorax -5.20171 0.298485 2.38359
lowerneck -19.9605 -2.28614 -10.6874
upperneck 38.4848 -0.500049 4.29691
head 17.6786 -1.04908 3.81935
rclavicle -4.61243e-014 1.60022e-014
rhumerus -32.6955 -9.7392 -81.163
rradius 32.4536
rwrist 4.67045
rhand -16.3857 8.94398
rfingers 7.12502
rthumb 9.82801 -20.8067
lclavicle -4.61243e-014 1.60022e-014
lhumerus -33.0334 -1.03881 85.8357
lradius 48.494
lwrist -0.202974
lhand -20.2447 26.8125
lfingers 7.12502
lthumb 6.10355 56.7046
rfemur -17.4351 -2.35028 12.4339
rtibia 53.1901
rfoot -12.8067 -4.93224
rtoes -4.32502
lfemur -4.02302 -0.94092 -29.0613
ltibia 15.4883
lfoot -1.25939 -23.4533
ltoes 16.8536
454
root -13.0387 17.8032 10.2547 358.886 29.4 -355.455
lowerback 10.7 0.737876 -5.419
upperback 0.766428 0.306975 -0.664509
thorax -5.23055 0.273613 2.31046
lowerneck -19.972 -2.24605 -10.5567
upperneck 38.4701 -0.495925 4.34299
head 17.6694 -1.01576 3.81967
rclavicle 5.9418e-015 -9.61621e-015
rhumerus -32.9667 -10.0519 -81.2132
rradius 32.6351
rwrist 5.14158
rhand -16.2439 8.69494
rfingers 7.12502
rthumb 9.96488 -21.0492
lclavicle 5.9418e-015 -9.61621e-015
lhumerus -32.9672 -1.50007 85.9374
lradius 49.4273
lwrist 0.157822
lhand -20.0668 26.7246
lfingers 7.12502
lthumb 6.2753 56.6116
rfemur -17.4927 -1.57119 12.1382
rtibia 51.9768
rfoot -13.0528 -4.81269
rtoes -4.56634
lfemur -3.89411 -1.02247 -28.9187
ltibia 15.5865
lfoot -0.801996 -24.5358
ltoes 18.2913
455
root -13.0491 17.8049 10.339 358.966 30.5585 -355.455
lowerback 10.8065 0.694529 -5.32646
upperback 0.729608 0.247375 -0.764365
thorax -5.32328 0.244239 2.16202
lowerneck -19.8138 -2.21106 -10.4211
upperneck 38.3729 -0.569567 4.49285
head 17.5777 -0.994932 3.84582
rclavicle 3.64407e-014 6.94349e-015
rhumerus -33.2369 -10.2806 -81.3921
rradius 32.6727
rwrist 5.33233
rhand -16.5589 9.1158
rfingers 7.12502
rthumb 9.66093 -20.6427
lclavicle 3.64407e-014 6.94349e-015
lhumerus -32.9744 -1.99561 85.9375
lradius 50.2913
lwrist 0.366628
lhand -19.9835 25.9526
lfingers 7.12502
lthumb 6.35572 55.8373
rfemur -17.5221 -0.614959 11.8813
rtibia 50.7823
rfoot -13.3327 -4.68803
rtoes -4.45172
lfemur -3.77695 -0.968641 -28.7029
ltibia 15.669
lfoot -0.146168 -25.689
ltoes 20.2327
456
root -13.0571 17.8032 10.4196 359.182 31.7897 -355.313
lowerback 10.9293 0.641301 -5.25411
upperback 0.658642 0.167578 -0.905752
thorax -5.46017 0.206416 1.98436
lowerneck -19.6836 -2.2357 -10.3914
upperneck 38.3202 -0.688749 4.65076
head 17.5266 -1.0091 3.88794
rclavicle 5.05332e-014 3.14328e-014
rhumerus -33.4357 -10.4323 -81.5707
rradius 32.5097
rwrist 5.34746
rhand -17.2155 9.58219
rfingers 7.12502
rthumb 9.02737 -20.2046
lclavicle 5.05332e-014 3.14328e-014
lhumerus -33.0234 -2.64143 85.9931
lradius 51.179
lwrist 0.57699
lhand -19.9031 25.3939
lfingers 7.12502
lthumb 6.43338 55.2762
rfemur -17.5731 0.281812 11.4536
rtibia 49.616
rfoot -13.6142 -4.55533
rtoes -5.81226
lfemur -3.77545 -1.50835 -28.682
ltibia 15.8585
lfoot 0.14156 -26.361
ltoes 21.1715
457
root -13.065 17.7981 10.5015 359.41 33.0216 -355.152
lowerback 11.0079 0.640656 -5.2678
upperback 0.596361 0.154604 -0.964035
thorax -5.56901 0.203498 1.93226
lowerneck -19.5735 -2.29993 -10.4545
upperneck 38.3312 -0.79313 4.73482
head 17.5181 -1.04331 3.91877
rclavicle -5.27634e-014 -1.94809e-014
rhumerus -33.6169 -10.578 -81.5315
rradius 32.3396
rwrist 5.31026
rhand -16.9743 9.2248
rfingers 7.12502
rthumb 9.26017 -20.5518
lclavicle -5.27634e-014 -1.94809e-014
lhumerus -32.9854 -3.05701 86.2091
lradius 51.8751
lwrist 0.558785
lhand -19.8063 25.1734
lfingers 7.12502
lthumb 6.52683 55.0528
rfemur -17.5741 1.16322 10.9849
rtibia 48.4427
rfoot -13.85 -4.29244
rtoes -7.12615
lfemur -3.77328 -2.25537 -28.694
ltibia 16.0938
lfoot 0.0583699 -26.8643
ltoes 20.9841
458
root -13.0758 17.797 10.5905 359.355 34.1759 -355.335
lowerback 10.9409 0.678496 -5.24883
upperback 0.673953 0.223634 -0.812177
thorax -5.45487 0.234952 2.07098
lowerneck -19.4726 -2.33651 -10.5389
upperneck 38.2665 -0.795001 4.69492
head 17.4593 -1.05427 3.9119
rclavicle -2.63172e-014 7.45443e-016
rhumerus -33.6914 -10.6888 -81.3511
rradius 32.3183
rwrist 5.1974
rhand -15.9316 8.6335
rfingers 7.12502
rthumb 10.2661 -21.096
lclavicle -2.63172e-014 7.45443e-016
lhumerus -32.7688 -3.30906 86.5406
lradius 52.4131
lwrist 0.580523
lhand -19.6925 25.0533
lfingers 7.12502
lthumb 6.63665 54.9293
rfemur -17.4455 2.41515 10.8337
rtibia 47.2521
rfoot -14.1532 -3.95093
rtoes -6.18832
lfemur -3.6479 -2.64148 -28.3218
ltibia 16.2742
lfoot 0.279256 -27.5708
ltoes 21.4278
459
root -13.0826 17.7979 10.6772 359.347 35.2671 -355.454
lowerback 10.8413 0.687992 -5.25196
upperback 0.765751 0.253879 -0.676129
thorax -5.30498 0.246561 2.21173
lowerneck -19.4299 -2.29176 -10.6002
upperneck 38.1881 -0.670825 4.6446
head 17.3922 -1.01192 3.9208
rclavicle -1.93024e-014 2.85101e-014
rhumerus -33.7267 -10.6055 -81.2684
rradius 32.3765
rwrist 4.98813
rhand -15.9034 8.39473
rfingers 7.12502
rthumb 10.2933 -21.3334
lclavicle -1.93024e-014 2.85101e-014
lhumerus -32.5804 -3.5593 86.8241
lradius 52.9964
lwrist 0.756092
lhand -19.5541 24.9412
lfingers 7.12502
lthumb 6.77032 54.8129
rfemur -17.3567 3.78384 10.5304
rtibia 46.075
rfoot -14.5228 -3.16394
rtoes -4.95987
lfemur -3.56893 -2.9337 -28.0184
ltibia 16.5014
lfoot 0.406791 -28.3082
ltoes 21.9588
